<?xml version="1.0" encoding="UTF-8"?>
<!DOCTYPE svg PUBLIC "-//W3C//DTD SVG 1.1//EN" "http://www.w3.org/Graphics/SVG/1.1/DTD/svg11.dtd">
<!-- Creator: CorelDRAW -->
<svg xmlns="http://www.w3.org/2000/svg" xml:space="preserve" width="229.711mm" height="155.035mm" version="1.1" style="shape-rendering:geometricPrecision; text-rendering:geometricPrecision; image-rendering:optimizeQuality; fill-rule:evenodd; clip-rule:evenodd"
viewBox="0 0 22971.06 15503.5"
 xmlns:xlink="http://www.w3.org/1999/xlink"
 xmlns:xodm="http://www.corel.com/coreldraw/odm/2003">
 <defs>
  <style type="text/css">
   <![CDATA[
    .str0 {stroke:#FEFEFE;stroke-width:277.79;stroke-miterlimit:22.9256}
    .fil0 {fill:#FEFEFE;fill-rule:nonzero}
   ]]>
  </style>
 </defs>
 <g id="Capa_x0020_1">
  <metadata id="CorelCorpID_0Corel-Layer"/>
  <g id="_2261163123984">
   <path class="fil0" d="M16079.74 13206.43l-2297.07 2297.07 0 -3937.46 2297.07 -2297.17 0 3937.56zm-2297.07 -11375.73l0 -1830.69 2297.07 2295.12 0 1148.56 1148.51 1148.52 2297.22 0 1148.51 -907.41 0 -1389.67 2297.07 -2295.12 0 4592.2 -1148.51 1148.56 1148.51 1148.51 0 4594.28 -2297.07 -2297.07 0 -1148.56 -1148.51 -1148.65 -2297.22 0 -684.08 684.17 -0.05 -2981.24c0,-118.84 -45.37,-237.72 -136.01,-328.37l-2294.66 -2294.66c-84.24,-85.44 -201.31,-138.48 -330.78,-138.48z"/>
   <g>
    <polygon class="fil0" points="11485.59,10335 13782.67,8037.93 13782.67,5740.77 12634.11,4592.21 10336.94,4592.21 9652.81,5276.34 9652.81,2295.13 13782.67,2295.13 16079.74,4592.21 16079.74,8612.14 11485.59,13206.43 8655.41,10376.24 9652.81,9378.79 9652.81,8502.31 "/>
    <path class="fil0 str0" d="M10795.56 1722.76l-458.64 -460.58 458.64 -458.63 460.72 458.63 -460.72 460.58zm1377.99 0l-458.64 -460.58 458.64 -458.63 460.58 458.63 -460.58 460.58z"/>
   </g>
   <polygon class="fil0" points="-0,0.03 2297.06,2295.15 2297.06,8612.15 4594.26,10909.21 6891.33,8612.15 6891.33,2295.15 9188.39,0.03 9188.39,9186.48 4594.26,13780.61 -0,9186.48 "/>
  </g>
 </g>
</svg>
